<svg width="120" height="136" viewBox="0 0 120 136" fill="none" xmlns="http://www.w3.org/2000/svg">
<path d="M106.463 9.94237C98.9158 3.26574 88.5379 0 75.3298 0C67.2743 0 60.0897 1.59658 53.6308 4.71718C47.1719 7.83778 42.1644 12.1195 38.5358 17.7801C34.9072 23.2956 33.0929 29.5368 33.0929 36.286L43.8335 40.8581L55.2274 36.286C55.2274 30.7705 57.1142 26.3437 60.9605 22.8602C64.8069 19.4493 69.6692 17.7076 75.6201 17.7076C82.4419 17.7076 87.4494 19.4493 90.7877 22.9328C94.0534 26.4162 95.7226 31.3511 95.7226 37.6649C95.7226 44.1964 93.7631 49.2038 89.7716 52.6147C87.8122 54.3565 85.5625 56.3159 82.7321 56.5336C81.8613 56.6062 101.891 63.8634 102.036 63.7908C105.592 60.7428 109.366 58.2028 112.124 54.429C115.97 49.2038 117.857 43.6158 117.857 37.6649C117.784 25.7631 114.011 16.5464 106.463 9.94237Z" fill="url(#paint0_linear)"/>
<path d="M119.671 97.0288C119.671 108.931 115.607 118.365 107.407 125.404C99.2786 132.444 88.538 136 75.2573 136C62.4846 136 52.1068 132.589 43.9788 125.84C35.8507 119.018 33.3107 110.019 33.3107 98.7705H53.9211C53.9211 104.576 55.8806 109.366 59.7995 112.922C63.6458 116.551 68.9435 118.365 75.6202 118.365C82.4419 118.365 87.8848 116.623 91.8037 112.922C95.7226 109.293 97.7547 103.996 97.7547 97.1014C97.7547 94.4888 97.4643 92.0939 96.8838 89.9167C96.8112 89.7716 96.8112 89.5539 96.6661 89.4087C96.6661 89.4087 96.6661 89.4088 96.6661 89.3362C95.7227 85.9979 93.9809 83.2401 91.5135 81.063C87.3768 77.2892 81.2808 75.4023 73.1527 75.4023H60.1623V75.2572H60.0898L59.7995 57.9125L75.0396 57.9851C75.0396 57.9851 88.6106 62.4845 97.5369 66.2583C101.746 67.7097 105.375 69.5966 108.35 71.9914C111.253 73.9509 113.358 76.0555 115.462 80.0469C115.752 80.555 115.97 80.9904 116.188 81.4984C116.406 82.0064 116.696 82.5144 116.914 83.095C118.728 87.159 119.671 91.8762 119.671 97.0288Z" fill="white"/>
<path d="M96.8111 89.8442L96.7386 89.9167C96.7386 89.9167 96.7386 89.699 96.666 89.3362C96.7386 89.4088 96.7386 89.6265 96.8111 89.8442Z" fill="white"/>
<path d="M19.5945 99.2785H0V60.5251L9.79723 65.0971L19.5945 60.5251V99.2785Z" fill="white"/>
<path d="M0 55.6627L9.79723 59.7268L19.5945 55.5902V37.0117L9.79723 41.0032L0 36.9391V55.6627Z" fill="url(#paint1_linear)"/>
<defs>
<linearGradient id="paint0_linear" x1="88.4688" y1="68.6677" x2="63.7327" y2="0.706056" gradientUnits="userSpaceOnUse">
<stop stop-color="#592564"/>
<stop offset="0.3829" stop-color="#EB2F4E"/>
<stop offset="1" stop-color="#EB2F4E"/>
</linearGradient>
<linearGradient id="paint1_linear" x1="9.7846" y1="59.7052" x2="9.7846" y2="36.9137" gradientUnits="userSpaceOnUse">
<stop stop-color="#592564"/>
<stop offset="0.0632667" stop-color="#592564"/>
<stop offset="0.82" stop-color="#EB2F4E"/>
<stop offset="1" stop-color="#EB2F4E"/>
</linearGradient>
</defs>
</svg>
